<?xml version="1.0" standalone="no"?>
<!DOCTYPE svg PUBLIC "-//W3C//DTD SVG 20010904//EN"
 "http://www.w3.org/TR/2001/REC-SVG-20010904/DTD/svg10.dtd">
<svg version="1.0" xmlns="http://www.w3.org/2000/svg"
 width="300.000000pt" height="300.000000pt" viewBox="0 0 300.000000 300.000000"
 preserveAspectRatio="xMidYMid meet">
<metadata>
Created by potrace 1.14, written by Peter Selinger 2001-2017
</metadata>
<g transform="translate(0.000000,300.000000) scale(0.100000,-0.100000)"
fill="#000000" stroke="none">
<path d="M1365 2988 c-216 -18 -437 -91 -630 -206 -448 -267 -728 -758 -729
-1277 0 -84 11 -234 19 -257 2 -7 6 -26 8 -43 11 -78 65 -237 118 -350 140
-299 405 -564 709 -708 85 -41 217 -89 278 -102 12 -3 32 -7 45 -10 164 -37
430 -41 587 -10 105 21 145 31 220 57 513 180 888 619 986 1153 19 107 25 324
12 450 -22 201 -111 444 -232 629 -72 110 -87 128 -211 251 -312 310 -735 462
-1180 423z m330 -152 c17 -4 55 -11 85 -17 246 -48 497 -186 683 -376 216
-221 341 -480 382 -793 7 -51 8 -255 1 -285 -2 -11 -7 -46 -10 -78 -9 -74 -54
-231 -93 -322 -140 -327 -426 -601 -759 -729 -536 -204 -1143 -46 -1517 397
-145 171 -260 414 -292 620 -3 17 -9 57 -14 87 -10 58 -7 287 4 355 28 182
101 373 201 531 207 327 583 566 959 610 28 4 52 8 54 10 6 5 284 -4 316 -10z"/>
<path d="M1387 2794 c-2 -2 -83 -12 -100 -13 -5 -1 -6 -13 -3 -28 8 -39 17
-136 22 -218 2 -38 7 -69 11 -68 4 1 37 4 73 7 35 3 67 9 71 14 4 4 12 23 17
43 l10 37 -45 -20 c-51 -23 -66 -16 -61 28 2 23 7 28 24 26 14 -2 24 6 32 23
18 40 15 46 -23 43 -40 -2 -40 -2 -49 35 -6 25 -4 27 28 27 38 0 40 2 50 41 5
25 3 27 -25 25 -17 0 -31 -2 -32 -2z"/>
<path d="M1571 2754 c0 -27 -2 -71 -6 -99 -3 -27 -8 -70 -10 -95 -3 -25 -8
-52 -10 -61 -4 -13 5 -17 47 -22 96 -12 103 -10 121 28 l17 36 -50 -7 -50 -7
5 64 c8 92 14 140 20 171 6 26 4 28 -23 28 -17 0 -37 3 -46 6 -13 5 -16 -2
-15 -42z"/>
<path d="M1835 2713 c-10 -58 -45 -184 -61 -221 -14 -33 -19 -60 -8 -50 3 4
21 0 39 -8 44 -18 45 -18 45 9 0 28 54 227 69 255 10 19 9 23 -11 31 -65 24
-65 24 -73 -16z"/>
<path d="M1046 2711 c-3 -5 -20 -12 -38 -15 -47 -9 -64 -21 -51 -38 12 -15 83
-237 83 -261 0 -10 3 -17 7 -17 5 0 72 21 81 26 1 1 -7 23 -18 49 -11 26 -18
50 -16 52 3 3 17 -6 32 -20 48 -45 69 -52 114 -37 l40 13 -38 26 c-82 55 -96
70 -82 86 30 36 14 124 -25 139 -25 9 -83 7 -89 -3z m59 -78 c3 -9 -2 -28 -12
-42 l-17 -26 -13 34 c-8 18 -12 39 -9 47 6 16 43 7 51 -13z"/>
<path d="M2019 2607 c-18 -12 -44 -40 -57 -62 -56 -98 8 -218 136 -254 26 -8
28 -5 62 65 20 42 31 74 24 74 -6 0 -23 10 -38 21 -15 12 -28 20 -30 18 -1 -2
-10 -25 -20 -51 -10 -27 -21 -48 -26 -48 -16 0 -50 52 -50 76 0 59 43 114 90
114 28 0 71 -32 83 -62 7 -16 24 5 33 40 8 28 -7 46 -60 71 -55 27 -105 27
-147 -2z"/>
<path d="M2330 2458 c0 -12 -57 -90 -128 -176 l-44 -52 33 -31 c30 -28 35 -30
44 -14 19 33 149 200 165 212 13 10 10 16 -20 42 -38 33 -50 38 -50 19z"/>
<path d="M1468 2455 c-2 -1 -34 -5 -73 -9 -100 -8 -234 -48 -323 -94 -99 -52
-162 -100 -251 -190 l-93 -94 -77 0 c-74 0 -198 9 -253 18 -23 3 -30 -1 -43
-26 l-16 -30 90 -115 c50 -63 94 -123 100 -132 11 -20 12 -20 34 27 16 35 16
35 -13 64 l-28 29 21 44 c21 44 23 45 60 39 36 -6 38 -5 54 31 15 35 16 37 25
17 8 -17 0 -41 -36 -115 -115 -239 -131 -491 -45 -736 16 -45 43 -107 60 -138
23 -43 29 -62 24 -88 -7 -34 -6 -34 34 -41 23 -3 41 -10 41 -14 0 -4 21 -31
48 -59 141 -151 338 -257 542 -290 25 -4 101 -7 170 -7 142 2 247 24 365 77
74 33 178 95 183 109 2 4 8 8 14 8 6 0 51 41 101 90 63 63 97 90 114 90 23 0
23 -1 8 -29 -55 -108 23 -255 131 -245 103 8 178 127 145 227 -14 41 -60 92
-93 102 -50 16 -71 55 -29 55 21 0 187 -66 215 -86 19 -13 21 -11 33 29 7 23
13 44 13 47 0 3 -21 12 -47 19 -27 8 -56 20 -67 27 -17 11 -14 14 25 24 126
34 129 35 143 92 5 23 3 27 -25 33 -17 4 -77 27 -132 51 -56 24 -103 44 -103
44 -1 0 -9 -20 -17 -44 l-15 -44 26 -5 c15 -3 50 -15 77 -27 l50 -22 -68 -19
c-38 -11 -78 -21 -90 -23 -23 -3 -29 -12 -50 -65 l-13 -35 -23 32 -22 32 24
63 c54 135 77 340 55 492 -40 272 -216 529 -469 683 -40 24 -169 79 -203 87
-12 2 -39 9 -61 15 -64 16 -237 33 -247 25z m-963 -457 c2 -1 -2 -13 -9 -26
l-12 -22 -29 31 -30 31 38 -5 c21 -3 40 -7 42 -9z m1986 -1137 c50 -50 52 -83
7 -111 -18 -11 -41 -20 -51 -20 -29 0 -73 36 -92 76 -16 34 -16 37 2 56 43 48
85 48 134 -1z"/>
<path d="M634 2426 c-16 -7 -51 -34 -77 -60 l-47 -46 33 -33 c17 -19 59 -67
91 -108 33 -41 63 -78 67 -82 7 -10 87 72 107 109 24 46 24 96 0 143 -39 76
-109 107 -174 77z m99 -110 c25 -37 28 -73 8 -97 -17 -21 -17 -21 -75 50 -34
42 -55 76 -50 81 29 27 89 10 117 -34z"/>
<path d="M2396 2224 c-72 -50 -92 -135 -51 -220 42 -85 119 -118 191 -81 87
45 113 148 61 241 -46 82 -131 107 -201 60z m144 -74 c36 -68 -5 -147 -87
-164 -26 -6 -34 -4 -43 15 -16 29 -17 83 -1 112 28 52 110 76 131 37z"/>
<path d="M2695 1854 c-16 -20 -40 -29 -132 -47 -62 -12 -113 -26 -113 -32 0
-5 5 -27 10 -47 11 -37 11 -37 43 -24 18 8 50 17 71 20 l39 7 -62 -69 c-62
-70 -62 -71 -56 -116 6 -39 10 -44 24 -36 29 15 204 58 245 59 16 1 18 6 12
43 -4 23 -8 44 -10 46 -2 1 -36 -6 -77 -17 -40 -12 -74 -20 -75 -18 -1 1 12
18 29 38 98 111 99 111 92 154 -3 22 -6 46 -7 53 -2 18 -10 14 -33 -14z"/>
<path d="M278 1743 c-27 -31 -36 -56 -42 -117 -4 -32 -8 -62 -11 -66 -2 -3 40
-12 93 -20 53 -7 118 -18 144 -25 l47 -12 6 51 c7 54 9 96 6 132 -3 57 -80 91
-120 53 -20 -19 -21 -19 -41 1 -25 25 -62 26 -82 3z m60 -75 c7 -7 12 -20 12
-30 0 -15 -5 -17 -27 -12 -36 9 -36 9 -28 33 7 23 25 27 43 9z m122 -13 c21
-26 8 -50 -25 -47 -39 5 -40 7 -27 37 13 28 34 32 52 10z"/>
<path d="M410 1286 c-36 -18 -92 -44 -125 -57 -33 -13 -62 -24 -64 -26 -8 -5
43 -129 66 -160 19 -26 31 -33 57 -33 35 0 76 34 76 63 0 12 7 15 34 10 43 -7
76 23 76 68 0 32 -41 169 -50 169 -3 -1 -34 -16 -70 -34z m53 -118 c-12 -13
-20 -15 -34 -7 -27 14 -23 34 9 45 21 8 28 7 33 -6 4 -8 0 -23 -8 -32z m-93
-27 c0 -28 -28 -47 -48 -34 -27 17 -25 38 5 49 33 13 43 9 43 -15z"/>
<path d="M487 956 c-65 -18 -120 -34 -122 -35 -3 0 -12 -1 -20 -1 -21 0 -19
-17 5 -50 20 -28 21 -28 55 -14 34 14 34 14 60 -23 30 -45 30 -47 5 -84 l-21
-28 23 -35 c26 -41 34 -44 43 -16 6 18 104 198 134 246 12 18 11 25 -4 47 -9
15 -22 27 -29 26 -6 0 -64 -15 -129 -33z m61 -81 c-21 -31 -24 -33 -35 -18
-18 24 -16 32 10 43 42 17 48 11 25 -25z"/>
<path d="M720 819 c0 -13 -103 -163 -139 -202 l-26 -28 50 -44 c93 -81 169
-82 228 -2 57 74 43 161 -36 238 -48 47 -77 61 -77 38z m69 -111 c19 -50 -5
-112 -52 -137 -29 -16 -81 -7 -74 12 10 26 99 147 108 147 5 0 13 -10 18 -22z"/>
<path d="M2157 738 c-35 -29 -36 -31 -18 -47 19 -17 146 -202 154 -224 2 -8
17 -1 40 19 35 32 35 32 17 52 -11 11 -50 67 -88 125 l-69 105 -36 -30z"/>
<path d="M2037 655 c-105 -36 -154 -150 -105 -245 45 -88 123 -108 212 -56 44
26 86 66 69 66 -11 0 -53 93 -53 116 0 19 -5 18 -49 -8 l-38 -22 24 -43 c26
-45 25 -58 -5 -65 -29 -8 -61 9 -82 44 -47 77 -8 158 73 154 25 -2 27 1 22 24
-11 43 -25 50 -68 35z"/>
<path d="M1033 593 c5 -8 -36 -169 -69 -274 -4 -11 6 -20 35 -31 23 -9 41 -13
42 -10 0 4 2 14 4 22 2 8 7 28 10 45 9 43 12 42 25 -6 19 -71 36 -94 74 -106
20 -6 36 -10 36 -8 0 2 -8 23 -18 47 -29 66 -36 118 -18 118 21 0 53 37 59 68
9 46 -19 88 -74 111 -59 26 -115 38 -106 24z m101 -96 c14 -22 -3 -51 -32 -55
-19 -3 -20 -1 -10 38 11 42 23 47 42 17z"/>
<path d="M1763 539 c-31 -9 -32 -10 -19 -42 7 -17 23 -81 36 -142 12 -60 24
-115 25 -121 3 -9 14 -9 44 -1 31 9 40 15 35 27 -11 27 -56 234 -57 263 -2 29
-10 31 -64 16z"/>
<path d="M1289 458 c0 -35 -2 -71 -4 -82 -2 -10 -6 -44 -8 -75 -3 -31 -8 -64
-12 -73 -5 -12 -2 -18 6 -19 8 0 21 -2 29 -3 8 -2 39 -6 67 -10 l53 -6 21 41
c19 39 20 41 2 35 -63 -25 -98 -12 -88 32 6 27 9 30 29 22 19 -7 26 -4 39 20
22 37 22 40 -10 40 -38 0 -53 11 -48 35 2 11 4 25 4 32 1 8 10 9 33 2 17 -5
32 -8 32 -6 1 1 7 12 14 24 6 13 12 27 12 31 0 5 -6 9 -12 9 -7 0 -46 4 -85 7
l-73 7 -1 -63z"/>
<path d="M1529 503 c-1 -5 -1 -11 -1 -14 5 -42 15 -233 14 -262 l-1 -38 71 5
c39 2 74 8 78 13 9 9 24 73 17 73 -2 0 -21 -7 -42 -16 -20 -8 -39 -14 -41 -12
-4 5 -12 119 -13 196 l-1 62 -40 0 c-22 0 -41 -3 -41 -7z"/>
</g>
</svg>
