<?xml version="1.0" encoding="utf-8"?>
<!-- Generator: Adobe Illustrator 26.0.2, SVG Export Plug-In . SVG Version: 6.00 Build 0)  -->
<svg version="1.1" id="Capa_1" xmlns="http://www.w3.org/2000/svg" xmlns:xlink="http://www.w3.org/1999/xlink" x="0px" y="0px"
	 viewBox="0 0 238.9 47.8" style="enable-background:new 0 0 238.9 47.8;" xml:space="preserve">
<style type="text/css">
	.st0{fill:#FFFFFF;}
</style>
<g>
	<g>
		<path class="st0" d="M59.6,17.6h6v3.2h0.1c1.8-2.4,4.3-3.7,7.4-3.7c3.5,0,5.8,1.4,7.4,3.9h0.1c1.8-2.3,4.5-3.9,8-3.9
			c4.8,0,9.1,2.8,9.1,9.2v17.4h-6.2V28.5c0-3.5-1.2-6-4.7-6c-3.5,0-5,2.7-5,6.1v15h-6.2V28.6c0-3.3-1-6.1-4.7-6.1
			c-2.2,0-5,1.5-5,5.8v15.3h-6.2V17.6z"/>
		<path class="st0" d="M103.4,7h6.2v6.6h-6.2V7z M103.4,17.6h6.2v26.1h-6.2V17.6z"/>
		<path class="st0" d="M115.3,17.6h6.1v3.2h0.1c1.7-2.5,4.5-3.7,7.4-3.7c5.9,0,9.1,3.7,9.1,9.9v16.7h-6.2V28.6c0-3.9-1.7-6-4.8-6
			c-3.4,0-5.4,2.1-5.4,6.5v14.6h-6.2V17.6z"/>
		<path class="st0" d="M143,34.3V17.6h6.2v15.1c0,3.9,1.7,6,4.9,6c3.4,0,5.4-2.1,5.4-6.6V17.6h6.2v26.1h-6v-3.2h-0.1
			c-1.7,2.5-4.4,3.7-7.3,3.7C146.3,44.2,143,40.4,143,34.3"/>
		<path class="st0" d="M172,37.5v-15h-3.5v-4.9h3.5V9.7h6.2v7.9h5.7v4.9h-5.7V36c0,1.9,1,2.5,2.4,2.5c1.3,0,2-0.1,3.2-0.3v5.3
			c-1.4,0.4-3.7,0.5-4.6,0.5C175.2,44.1,172,42.2,172,37.5"/>
		<path class="st0" d="M185.8,34.1v-6c0-7.1,6-11,11.8-11c6.3,0,12,4.2,12,10.8v5.4c0,7.1-6,11-11.8,11
			C191.4,44.3,185.8,40.7,185.8,34.1 M203.2,33.9v-6.5c0-3.2-2.4-5-5.6-5c-2.6,0-5.4,1.4-5.4,5.2V34c0,3.2,2.4,5,5.6,5
			C200.3,39,203.2,37.7,203.2,33.9"/>
		<path class="st0" d="M212.2,39.2l4.4-3.3c1.6,2.1,4.2,3.4,7.2,3.4c2.5,0,5.1-0.9,5.1-3.2c0-2-1.4-2.5-4.9-3.1l-3.4-0.6
			c-4.3-0.8-7.1-2.9-7.1-6.8c0-5.4,4.8-8.5,10.3-8.5c4.7,0,8,1.2,10.2,4.3l-4.5,3.1c-1.5-1.8-3.3-2.5-5.8-2.5
			c-2.4,0-4.2,0.9-4.2,2.9c0,1.8,2.2,2.1,4.9,2.6l3.9,0.8c4.4,0.9,7,3.4,7,7.3c0,6-6.2,8.9-11.5,8.9C219.2,44.2,214.8,43,212.2,39.2
			"/>
	</g>
	<g>
		<polygon class="st0" points="12.8,38.8 7.3,44.3 25.9,44.3 25.9,38.8 		"/>
		<path class="st0" d="M15.6,25.6L3.4,40v4.3h2.9l5.6-5.6v0l4.7-5.3c4.3-4.8,9.2-9.4,9.2-16.2c0-5.9-4-10.2-11.4-10.2
			C7.5,7,2.5,10.3,2.5,16.8v1.3h6.2v-1c0-2.9,1.8-4.8,5.1-4.8c3.5,0,5.1,2,5.1,4.5v1C18.9,20.8,17.6,23.2,15.6,25.6"/>
	</g>
	<path class="st0" d="M46.9,33.7c0,3.1-2,5.9-5.9,5.9c-3.9,0-5.9-2.7-5.9-5.8V18.3c0-3.3,2.2-5.9,6-5.9c2.4,0,4,1,5,2.5V7.8
		c-1.5-0.5-3.2-0.7-5-0.7c-6.6,0-12.8,3.6-12.8,11.2V34c0,7.8,6.4,10.9,12.8,10.9c6.4,0,12.7-3.7,12.7-11.1V18.4
		c0-5.4-2.9-8.7-6.8-10.3L46.9,33.7z"/>
</g>
</svg>
